# xmcd
#
# Track frame offsets:
#	150
#	10141
#	53536
#	101829
#	130766
#	226260
#	254605
#	284915
#
# Disc length: 4399 seconds
#
# Revision: 1
# Processed by: cddbd v1.5.2PL0 Copyright (c) Steve Scherf et al.
# Submitted via: audiograbber 1.83.01
#
DISCID=6d112d08
DTITLE=Grateful Dead - 69-04-20 Atwood Hall, Worcester MA
DYEAR=1900
DGENRE=
TTITLE0=Tuning
TTITLE1=Morning Dew
TTITLE2=Good Morning Little Schoolgirl
TTITLE3=Doin' That Rag
TTITLE4=Dark Star
TTITLE5=St Stephen
TTITLE6=The Eleven
TTITLE7=Death Don't Have No Mercy
EXTD=
EXTT0=
EXTT1=
EXTT2=
EXTT3=
EXTT4=
EXTT5=
EXTT6=
EXTT7=
PLAYORDER=
